<svg height="35.519" viewBox="0 0 35.521 35.519" width="35.521" xmlns="http://www.w3.org/2000/svg"><g transform="matrix(.5 -.8660254 .8660254 .5 -.022 22.556)"><ellipse cx="13.157" cy="13.034" fill="#46c5f8" rx="12.787" ry="12.617"/><path d="m21.281 2.941a.543.543 0 0 0 -.229-.181 12.926 12.926 0 1 0 .229.181zm2.614 5.446a15.552 15.552 0 0 0 -4.621-2.887 2.094 2.094 0 0 1 1.363-1.6 11.9 11.9 0 0 1 3.257 4.487zm-5.695-3.264a16.668 16.668 0 0 0 -2.491-.607c.005-.99.011-2.039.011-3.157a11.912 11.912 0 0 1 3.934 1.762 3.307 3.307 0 0 0 -1.454 2.002zm-3.616-3.982c0 1.161 0 2.241-.011 3.258a18.426 18.426 0 0 0 -2.364-.069 3.986 3.986 0 0 0 -1.3-2.47 3.354 3.354 0 0 0 -.836-.511 11.634 11.634 0 0 1 2.802-.349 11.441 11.441 0 0 1 1.709.141zm-6.734.99h.01a3.222 3.222 0 0 1 2.31.6 2.855 2.855 0 0 1 .878 1.666 18.175 18.175 0 0 0 -8.725 3 12.03 12.03 0 0 1 5.526-5.265zm-6.49 7.769a.358.358 0 0 0 .075-.08c1.134-1.789 5.132-3.87 9.742-4.307v.027c0 2.417-2.949 5.792-5.313 8.5a23.615 23.615 0 0 0 -3.471 4.56 11.771 11.771 0 0 1 -1.033-8.7zm1.84 9.964a1.007 1.007 0 0 0 .027-.122c0-.953 1.773-2.986 3.492-4.945 2.624-3 5.595-6.409 5.595-9.247 0-.037-.005-.064-.005-.1a17.762 17.762 0 0 1 2.257.064c-.133 11.547-.916 13.91-3.875 19.058a.264.264 0 0 0 -.021.069 11.917 11.917 0 0 1 -7.47-4.777zm8.658 4.936c3.029-5.339 3.721-8.214 3.838-19.148a15.612 15.612 0 0 1 2.316.559c-.011.154-.021.3-.021.468a17.8 17.8 0 0 0 1.831 6.739c1.208 2.9 2.348 5.638 1.081 8.3a11.854 11.854 0 0 1 -8.022 3.13c-.342.004-.681-.017-1.023-.048zm10.711-4.945c.2-2.321-.761-4.621-1.7-6.867a17.135 17.135 0 0 1 -1.741-6.3v-.053a14.365 14.365 0 0 1 5.457 4.072 11.735 11.735 0 0 1 -2.016 9.146z" fill="#37474f"/></g></svg>