<svg height="22.494" viewBox="0 0 267.073 22.494" width="267.073" xmlns="http://www.w3.org/2000/svg"><g fill="#fff"><path d="m0 0h6.139l8.717 14.628h.058v-14.628h4.517v21.051h-5.907l-8.948-14.986h-.059v14.986h-4.517z" transform="translate(222.651 .634)"/><path d="m8.5 20.949h-8.5v-20.949h7.735a19.513 19.513 0 0 1 2.71.192 7.407 7.407 0 0 1 2.447.769 4.735 4.735 0 0 1 1.758 1.613 5.009 5.009 0 0 1 .674 2.752 4.441 4.441 0 0 1 -.981 2.944 5.418 5.418 0 0 1 -2.593 1.672v.058a5.913 5.913 0 0 1 1.861.577 5 5 0 0 1 1.435 1.094 4.708 4.708 0 0 1 .923 1.554 5.528 5.528 0 0 1 .322 1.893 5.1 5.1 0 0 1 -.7 2.767 5.577 5.577 0 0 1 -1.816 1.791 7.951 7.951 0 0 1 -2.505.976 13.319 13.319 0 0 1 -2.77.297zm-3.929-8.669v4.764h4.1a5.016 5.016 0 0 0 1.069-.118 2.816 2.816 0 0 0 .982-.414 2.358 2.358 0 0 0 .718-.769 2.25 2.25 0 0 0 .278-1.154 1.872 1.872 0 0 0 -.366-1.2 2.342 2.342 0 0 0 -.923-.7 4.723 4.723 0 0 0 -1.2-.326 8.87 8.87 0 0 0 -1.2-.088zm0-8.374v4.468h3.311a4.619 4.619 0 0 0 1.04-.119 2.87 2.87 0 0 0 .923-.384 2.006 2.006 0 0 0 .659-.71 2.16 2.16 0 0 0 .249-1.061 1.86 1.86 0 0 0 -1-1.746 3.44 3.44 0 0 0 -1-.34 5.96 5.96 0 0 0 -1.084-.1z" transform="translate(154.3 .532)"/><path d="m7.472 20.949h-7.472v-20.949h6.856a19.5 19.5 0 0 1 4.732.562 10.833 10.833 0 0 1 3.912 1.82 8.939 8.939 0 0 1 2.651 3.27 11.1 11.1 0 0 1 .982 4.882 10.1 10.1 0 0 1 -.952 4.483 9.671 9.671 0 0 1 -2.564 3.255 11.345 11.345 0 0 1 -3.721 2 14.371 14.371 0 0 1 -4.424.677zm-2.901-16.688v12.427h2.373a12.687 12.687 0 0 0 2.945-.325 6.292 6.292 0 0 0 2.359-1.08 5.2 5.2 0 0 0 1.567-1.983 7.124 7.124 0 0 0 .572-3 5.936 5.936 0 0 0 -.572-2.678 5.376 5.376 0 0 0 -1.538-1.879 6.745 6.745 0 0 0 -2.271-1.11 10.045 10.045 0 0 0 -2.739-.37z" transform="translate(247.941 .532)"/><path d="m17.492 12.871a10.2 10.2 0 0 1 -.557 3.433 7.377 7.377 0 0 1 -4.395 4.527 10.2 10.2 0 0 1 -3.78.651 10.288 10.288 0 0 1 -3.809-.651 7.378 7.378 0 0 1 -4.394-4.531 10.182 10.182 0 0 1 -.557-3.429v-12.871h4.571v12.694a5.146 5.146 0 0 0 .308 1.8 4.313 4.313 0 0 0 .864 1.435 3.911 3.911 0 0 0 1.333.947 4.146 4.146 0 0 0 1.685.34 4.05 4.05 0 0 0 1.67-.34 3.963 3.963 0 0 0 1.318-.947 4.32 4.32 0 0 0 .864-1.435 5.141 5.141 0 0 0 .308-1.8v-12.694h4.571z" transform="translate(200.057 .521)"/><path d="m11.192 22.014a12.73 12.73 0 0 1 -4.483-.769 10.29 10.29 0 0 1 -3.545-2.2 10.041 10.041 0 0 1 -2.329-3.481 11.991 11.991 0 0 1 -.835-4.557 11.988 11.988 0 0 1 .835-4.556 10.93 10.93 0 0 1 .584-1.207l5.646-4.598a12.889 12.889 0 0 1 4.127-.646 12.733 12.733 0 0 1 4.483.769 10.3 10.3 0 0 1 3.545 2.2 10.05 10.05 0 0 1 2.33 3.482 11.988 11.988 0 0 1 .835 4.557 11.991 11.991 0 0 1 -.835 4.557 10.047 10.047 0 0 1 -2.329 3.477 10.293 10.293 0 0 1 -3.545 2.2 12.734 12.734 0 0 1 -4.484.772zm0-17.754a6.762 6.762 0 0 0 -2.651.5 5.984 5.984 0 0 0 -2.041 1.409 6.213 6.213 0 0 0 -1.3 2.145 7.819 7.819 0 0 0 -.454 2.693 7.778 7.778 0 0 0 .454 2.707 6.234 6.234 0 0 0 1.3 2.131 5.967 5.967 0 0 0 2.041 1.405 6.755 6.755 0 0 0 2.651.5 6.759 6.759 0 0 0 2.652-.5 5.966 5.966 0 0 0 2.036-1.405 6.248 6.248 0 0 0 1.3-2.131 7.786 7.786 0 0 0 .454-2.707 7.828 7.828 0 0 0 -.454-2.693 6.226 6.226 0 0 0 -1.3-2.145 5.983 5.983 0 0 0 -2.036-1.405 6.765 6.765 0 0 0 -2.652-.503z" transform="translate(173.255)"/><path d="m14.679 5.977a4.5 4.5 0 0 0 -1.655-1.277 5.462 5.462 0 0 0 -2.271-.444 5.656 5.656 0 0 0 -4.293 1.913 6.566 6.566 0 0 0 -1.26 2.145 7.788 7.788 0 0 0 -.454 2.693 7.747 7.747 0 0 0 .454 2.707 6.744 6.744 0 0 0 1.245 2.131 5.639 5.639 0 0 0 1.861 1.405 5.332 5.332 0 0 0 2.3.5 5.115 5.115 0 0 0 2.491-.592 4.978 4.978 0 0 0 1.787-1.658l3.809 2.87a7.946 7.946 0 0 1 -3.34 2.752 10.245 10.245 0 0 1 -4.161.888 12.666 12.666 0 0 1 -4.483-.769 10.234 10.234 0 0 1 -3.545-2.2 10 10 0 0 1 -2.329-3.477 11.932 11.932 0 0 1 -.835-4.557 11.934 11.934 0 0 1 .835-4.557 10 10 0 0 1 2.329-3.476 10.245 10.245 0 0 1 3.546-2.205 12.666 12.666 0 0 1 4.482-.769 10.91 10.91 0 0 1 1.831.163 9.83 9.83 0 0 1 1.877.518 8.324 8.324 0 0 1 1.773.947 7.094 7.094 0 0 1 1.524 1.45z" transform="translate(0 .48)"/><path d="m0 0h4.571v16.688h6.029v4.261h-10.6z" transform="translate(49.056 1.013)"/><path d="m0 0h4.571v16.688h6.029v4.261h-10.6z" transform="translate(65.474 1.013)"/><path d="m19.894 20a16.423 16.423 0 0 1 -4.219 1.539 21.254 21.254 0 0 1 -4.483.473 12.666 12.666 0 0 1 -4.483-.769 10.234 10.234 0 0 1 -3.545-2.2 10 10 0 0 1 -2.329-3.479 11.932 11.932 0 0 1 -.835-4.557 11.934 11.934 0 0 1 .835-4.557 10 10 0 0 1 2.329-3.476 10.245 10.245 0 0 1 3.546-2.205 12.666 12.666 0 0 1 4.482-.769 16.452 16.452 0 0 1 4.586.606 7.709 7.709 0 0 1 3.9 2.387l-3.66 3.2a5.516 5.516 0 0 0 -1.9-1.433 7.46 7.46 0 0 0 -2.93-.5 6.737 6.737 0 0 0 -2.652.5 5.962 5.962 0 0 0 -2.036 1.409 6.189 6.189 0 0 0 -1.3 2.145 7.788 7.788 0 0 0 -.454 2.693 7.747 7.747 0 0 0 .454 2.707 6.206 6.206 0 0 0 1.3 2.131 5.941 5.941 0 0 0 2.041 1.405 6.724 6.724 0 0 0 2.652.5 8.654 8.654 0 0 0 2.578-.34 9.664 9.664 0 0 0 1.729-.7v-3.4h-3.722v-4.256h8.116z" transform="translate(99.989 .48)"/><path d="m11.192 22.014a12.73 12.73 0 0 1 -4.483-.769 10.29 10.29 0 0 1 -3.545-2.2 10.041 10.041 0 0 1 -2.329-3.481 11.991 11.991 0 0 1 -.835-4.557 11.988 11.988 0 0 1 .835-4.556 10.93 10.93 0 0 1 .584-1.207l5.646-4.598a12.879 12.879 0 0 1 4.127-.646 12.733 12.733 0 0 1 4.483.769 10.3 10.3 0 0 1 3.545 2.2 10.05 10.05 0 0 1 2.33 3.482 11.988 11.988 0 0 1 .835 4.557 11.991 11.991 0 0 1 -.835 4.557 10.047 10.047 0 0 1 -2.329 3.477 10.293 10.293 0 0 1 -3.545 2.2 12.734 12.734 0 0 1 -4.484.772zm0-17.754a6.762 6.762 0 0 0 -2.651.5 5.984 5.984 0 0 0 -2.041 1.409 6.213 6.213 0 0 0 -1.3 2.145 7.819 7.819 0 0 0 -.454 2.693 7.778 7.778 0 0 0 .454 2.707 6.234 6.234 0 0 0 1.3 2.131 5.967 5.967 0 0 0 2.041 1.405 6.755 6.755 0 0 0 2.651.5 6.759 6.759 0 0 0 2.652-.5 5.966 5.966 0 0 0 2.036-1.405 6.248 6.248 0 0 0 1.3-2.131 7.786 7.786 0 0 0 .454-2.707 7.828 7.828 0 0 0 -.454-2.693 6.226 6.226 0 0 0 -1.3-2.145 5.983 5.983 0 0 0 -2.036-1.405 6.765 6.765 0 0 0 -2.652-.503z" transform="translate(21.242 .48)"/><path d="m14.865 18.553v-1.865h-10.294v-4.26h4.951l2.579-2.1v-2.161h-7.53v-3.906h7.142l3.112-2.535v-1.726h-14.825v20.949h11.923z" transform="translate(81.647 1.013)"/><path d="m14.865 18.553v-1.865h-10.294v-4.26h4.951l2.579-2.1v-2.161h-7.53v-3.906h7.142l3.112-2.535v-1.726h-14.825v20.949h11.923z" transform="translate(125.324 1.013)"/></g></svg>