<svg height="35.684" viewBox="0 0 423.672 35.684" width="423.672" xmlns="http://www.w3.org/2000/svg" xmlns:xlink="http://www.w3.org/1999/xlink"><linearGradient id="a" gradientUnits="objectBoundingBox" x1=".5" x2=".5" y2="1"><stop offset="0" stop-color="#84e7d9"/><stop offset="1" stop-color="#aacee3"/></linearGradient><g fill="url(#a)"><path d="m0 0h9.739l13.828 23.206h.092v-23.206h7.166v33.394h-9.372l-14.195-23.772h-.092v23.772h-7.166z" transform="translate(353.203 1.006)"/><path d="m13.479 33.233h-13.479v-33.233h12.271a30.955 30.955 0 0 1 4.3.3 11.75 11.75 0 0 1 3.881 1.22 7.511 7.511 0 0 1 2.788 2.564 7.946 7.946 0 0 1 1.069 4.365 7.045 7.045 0 0 1 -1.557 4.671 8.6 8.6 0 0 1 -4.114 2.653v.094a9.38 9.38 0 0 1 2.952.915 7.939 7.939 0 0 1 2.277 1.736 7.469 7.469 0 0 1 1.464 2.465 8.77 8.77 0 0 1 .511 3 8.083 8.083 0 0 1 -1.116 4.389 8.846 8.846 0 0 1 -2.881 2.841 12.613 12.613 0 0 1 -3.974 1.548 21.129 21.129 0 0 1 -4.392.472zm-6.228-13.753v7.557h6.507a7.957 7.957 0 0 0 1.7-.187 4.466 4.466 0 0 0 1.557-.657 3.74 3.74 0 0 0 1.139-1.22 3.57 3.57 0 0 0 .442-1.831 2.97 2.97 0 0 0 -.581-1.9 3.715 3.715 0 0 0 -1.464-1.1 7.493 7.493 0 0 0 -1.906-.517 14.07 14.07 0 0 0 -1.905-.14zm0-13.284v7.087h5.249a7.327 7.327 0 0 0 1.65-.188 4.553 4.553 0 0 0 1.464-.61 3.182 3.182 0 0 0 1.046-1.126 3.427 3.427 0 0 0 .4-1.69 2.95 2.95 0 0 0 -1.582-2.769 5.457 5.457 0 0 0 -1.58-.54 9.454 9.454 0 0 0 -1.72-.164z" transform="translate(244.774 .845)"/><path d="m11.853 33.233h-11.853v-33.233h10.876a30.939 30.939 0 0 1 7.507.892 17.184 17.184 0 0 1 6.2 2.887 14.18 14.18 0 0 1 4.206 5.187 17.614 17.614 0 0 1 1.557 7.744 16.019 16.019 0 0 1 -1.51 7.112 15.342 15.342 0 0 1 -4.067 5.163 18 18 0 0 1 -5.9 3.168 22.8 22.8 0 0 1 -7.016 1.08zm-4.602-26.474v19.714h3.765a20.126 20.126 0 0 0 4.671-.516 9.981 9.981 0 0 0 3.742-1.713 8.251 8.251 0 0 0 2.486-3.144 11.3 11.3 0 0 0 .907-4.764 9.416 9.416 0 0 0 -.907-4.248 8.528 8.528 0 0 0 -2.44-2.98 10.7 10.7 0 0 0 -3.6-1.761 15.935 15.935 0 0 0 -4.345-.587z" transform="translate(393.321 .845)"/><path d="m27.748 20.418a16.181 16.181 0 0 1 -.883 5.445 11.7 11.7 0 0 1 -6.972 7.182 16.186 16.186 0 0 1 -6 1.032 16.321 16.321 0 0 1 -6.043-1.032 11.7 11.7 0 0 1 -6.967-7.182 16.152 16.152 0 0 1 -.883-5.445v-20.418h7.251v20.137a8.164 8.164 0 0 0 .488 2.863 6.842 6.842 0 0 0 1.371 2.277 6.2 6.2 0 0 0 2.115 1.5 6.577 6.577 0 0 0 2.672.54 6.425 6.425 0 0 0 2.65-.54 6.287 6.287 0 0 0 2.091-1.5 6.854 6.854 0 0 0 1.371-2.277 8.155 8.155 0 0 0 .488-2.863v-20.137h7.251z" transform="translate(317.361 .827)"/><path d="m17.755 34.922a20.2 20.2 0 0 1 -7.112-1.22 16.323 16.323 0 0 1 -5.623-3.502 15.929 15.929 0 0 1 -3.7-5.515 19.022 19.022 0 0 1 -1.32-7.224 19.018 19.018 0 0 1 1.325-7.228 17.338 17.338 0 0 1 .927-1.915l8.956-7.294a20.447 20.447 0 0 1 6.547-1.024 20.2 20.2 0 0 1 7.112 1.22 16.336 16.336 0 0 1 5.624 3.5 15.943 15.943 0 0 1 3.7 5.516 19.018 19.018 0 0 1 1.325 7.228 19.022 19.022 0 0 1 -1.325 7.228 15.939 15.939 0 0 1 -3.7 5.515 16.329 16.329 0 0 1 -5.624 3.5 20.2 20.2 0 0 1 -7.112 1.215zm0-28.163a10.726 10.726 0 0 0 -4.206.8 9.493 9.493 0 0 0 -3.231 2.229 9.855 9.855 0 0 0 -2.068 3.4 12.4 12.4 0 0 0 -.72 4.272 12.338 12.338 0 0 0 .72 4.294 9.89 9.89 0 0 0 2.068 3.38 9.466 9.466 0 0 0 3.231 2.229 10.716 10.716 0 0 0 4.206.8 10.722 10.722 0 0 0 4.207-.8 9.464 9.464 0 0 0 3.23-2.229 9.912 9.912 0 0 0 2.069-3.38 12.352 12.352 0 0 0 .72-4.294 12.418 12.418 0 0 0 -.72-4.272 9.877 9.877 0 0 0 -2.069-3.4 9.491 9.491 0 0 0 -3.23-2.229 10.732 10.732 0 0 0 -4.207-.8z" transform="translate(274.843)"/><path d="m23.286 9.482a7.13 7.13 0 0 0 -2.626-2.019 8.665 8.665 0 0 0 -3.6-.7 8.973 8.973 0 0 0 -6.809 3.027 10.415 10.415 0 0 0 -2 3.4 12.354 12.354 0 0 0 -.72 4.271 12.289 12.289 0 0 0 .72 4.295 10.7 10.7 0 0 0 1.976 3.38 8.945 8.945 0 0 0 2.951 2.229 8.459 8.459 0 0 0 3.649.8 8.115 8.115 0 0 0 3.951-.939 7.9 7.9 0 0 0 2.833-2.626l6.042 4.553a12.6 12.6 0 0 1 -5.3 4.365 16.252 16.252 0 0 1 -6.6 1.408 20.093 20.093 0 0 1 -7.111-1.22 16.234 16.234 0 0 1 -5.624-3.5 15.856 15.856 0 0 1 -3.7-5.516 18.929 18.929 0 0 1 -1.318-7.229 18.931 18.931 0 0 1 1.325-7.228 15.858 15.858 0 0 1 3.7-5.515 16.252 16.252 0 0 1 5.624-3.5 20.093 20.093 0 0 1 7.106-1.218 17.307 17.307 0 0 1 2.9.258 15.594 15.594 0 0 1 2.975.822 13.205 13.205 0 0 1 2.812 1.5 11.254 11.254 0 0 1 2.417 2.3z" transform="translate(0 .761)"/><path d="m0 0h7.251v26.473h9.562v6.759h-16.813z" transform="translate(77.82 1.606)"/><path d="m0 0h7.251v26.473h9.562v6.759h-16.813z" transform="translate(103.864 1.606)"/><path d="m31.56 31.731a26.053 26.053 0 0 1 -6.693 2.441 33.717 33.717 0 0 1 -7.111.751 20.093 20.093 0 0 1 -7.111-1.22 16.234 16.234 0 0 1 -5.624-3.5 15.856 15.856 0 0 1 -3.7-5.516 18.929 18.929 0 0 1 -1.321-7.226 18.931 18.931 0 0 1 1.325-7.228 15.858 15.858 0 0 1 3.7-5.515 16.252 16.252 0 0 1 5.624-3.5 20.093 20.093 0 0 1 7.106-1.218 26.1 26.1 0 0 1 7.274.962 12.229 12.229 0 0 1 6.189 3.786l-5.806 5.082a8.75 8.75 0 0 0 -3.012-2.273 11.834 11.834 0 0 0 -4.648-.8 10.688 10.688 0 0 0 -4.206.8 9.457 9.457 0 0 0 -3.231 2.23 9.819 9.819 0 0 0 -2.069 3.4 12.354 12.354 0 0 0 -.72 4.271 12.289 12.289 0 0 0 .72 4.295 9.845 9.845 0 0 0 2.069 3.38 9.424 9.424 0 0 0 3.231 2.229 10.667 10.667 0 0 0 4.206.8 13.728 13.728 0 0 0 4.09-.54 15.331 15.331 0 0 0 2.742-1.1v-5.4h-5.9v-6.759h12.876z" transform="translate(158.617 .761)"/><path d="m17.755 34.922a20.2 20.2 0 0 1 -7.112-1.22 16.323 16.323 0 0 1 -5.623-3.502 15.929 15.929 0 0 1 -3.7-5.515 19.022 19.022 0 0 1 -1.32-7.224 19.018 19.018 0 0 1 1.325-7.228 17.338 17.338 0 0 1 .927-1.915l8.956-7.293a20.43 20.43 0 0 1 6.547-1.025 20.2 20.2 0 0 1 7.112 1.22 16.336 16.336 0 0 1 5.624 3.5 15.943 15.943 0 0 1 3.7 5.516 19.018 19.018 0 0 1 1.325 7.228 19.022 19.022 0 0 1 -1.325 7.228 15.939 15.939 0 0 1 -3.7 5.515 16.329 16.329 0 0 1 -5.624 3.5 20.2 20.2 0 0 1 -7.112 1.215zm0-28.163a10.726 10.726 0 0 0 -4.206.8 9.493 9.493 0 0 0 -3.231 2.229 9.855 9.855 0 0 0 -2.068 3.4 12.4 12.4 0 0 0 -.72 4.272 12.338 12.338 0 0 0 .72 4.294 9.89 9.89 0 0 0 2.068 3.38 9.466 9.466 0 0 0 3.231 2.229 10.716 10.716 0 0 0 4.206.8 10.722 10.722 0 0 0 4.207-.8 9.464 9.464 0 0 0 3.23-2.229 9.912 9.912 0 0 0 2.069-3.38 12.352 12.352 0 0 0 .72-4.294 12.418 12.418 0 0 0 -.72-4.272 9.877 9.877 0 0 0 -2.069-3.4 9.491 9.491 0 0 0 -3.23-2.229 10.732 10.732 0 0 0 -4.207-.8z" transform="translate(33.697 .762)"/><path d="m23.58 29.432v-2.959h-16.329v-6.759h7.855l4.094-3.332v-3.427h-11.949v-6.2h11.33l4.937-4.021v-2.734h-23.518v33.233h18.914z" transform="translate(129.521 1.606)"/><path d="m23.58 29.432v-2.959h-16.329v-6.759h7.855l4.094-3.332v-3.427h-11.949v-6.2h11.33l4.937-4.021v-2.734h-23.518v33.233h18.913z" transform="translate(198.807 1.606)"/></g></svg>