<svg xmlns="http://www.w3.org/2000/svg" width="60.085" height="18.422" viewBox="0 0 60.085 18.422">
  <g id="Visa_2014_logo_detail" transform="translate(0 0)">
    <g id="g3891" transform="translate(0 0)">
      <path id="polygon3052" d="M189.968,2.739h4.865l-3.044,17.847h-4.863Z" transform="translate(-165.784 -2.567)" fill="#fff"/>
      <path id="path3054" d="M279.458,10.006a12.565,12.565,0,0,0-4.36-.75c-4.807,0-8.193,2.421-8.221,5.89-.027,2.564,2.417,4,4.262,4.849,1.893.875,2.53,1.433,2.521,2.214-.012,1.2-1.512,1.743-2.91,1.743a10.2,10.2,0,0,1-4.579-.937l-.627-.284-.683,4a15.4,15.4,0,0,0,5.419.952c5.114,0,8.433-2.393,8.471-6.1.018-2.03-1.278-3.575-4.084-4.849-1.7-.826-2.742-1.377-2.731-2.213,0-.742.881-1.535,2.786-1.535a8.974,8.974,0,0,1,3.641.684l.436.206.659-3.868" transform="translate(-235.785 -9.256)" fill="#fff"/>
      <path id="path3056" d="M397.966,12.146h-3.759a2.42,2.42,0,0,0-2.547,1.48l-7.225,16.356h5.108s.835-2.2,1.024-2.682l6.23.008c.146.625.592,2.674.592,2.674H401.9l-3.937-17.836m-6,11.5c.4-1.028,1.938-4.989,1.938-4.989-.029.048.4-1.033.645-1.7l.329,1.539s.931,4.26,1.126,5.154h-4.038Z" transform="translate(-341.819 -11.818)" fill="#fff"/>
      <g id="g3079" transform="translate(0 0.312)">
        <path id="path3058" d="M56.868,2.854,52.1,15.025,51.6,12.551A13.929,13.929,0,0,0,44.86,5.065l4.355,15.608,5.147-.006L62.02,2.854H56.868" transform="translate(-39.78 -2.843)" fill="#fff"/>
        <path id="path3060" d="M7.906,2.757H.062L0,3.128c6.1,1.477,10.141,5.047,11.817,9.337l-1.706-8.2A2.036,2.036,0,0,0,7.906,2.757" transform="translate(0 -2.757)" fill="#fff"/>
      </g>
      <path id="path3041" d="M50.021,31.306a1.078,1.078,0,0,0-.59-.806l1.434.645" transform="translate(-44.749 -28.094)" fill="#fff"/>
    </g>
  </g>
</svg>
